# xmcd CD database file
#
# Track frame offsets:
#	150
#	16070
#	31712
#	47212
#	64632
#	79277
#	95865
#	107495
#	119825
#	135665
#	147740
#	162290
#	176527
#	191452
#	207027
#	221957
#
# Disc length: 3165 seconds
#
# Revision: 1
# Processed by: cddbd v1.5.1PL0 Copyright (c) Steve Scherf et al.
# Submitted via: CDex 1.51
#
DISCID=ea0c5b10
DTITLE=Benny Goodman - Falling in love with Beeny Goodman
DYEAR=1900
DGENRE=Jazz
TTITLE0=Benny Goodman-Body And Soul-97bpm
TTITLE1=Benny Goodman-The Man I Love-77bpm
TTITLE2=Benny Goodman-Moonglow-110bpm
TTITLE3=Benny Goodman-Sweet Lorraine-88bpm
TTITLE4=Benny Goodman-More Than You Know-82bpm
TTITLE5=Benny Goodman-In A Sentimental Mood-85bpm
TTITLE6=Benny Goodman-You Can't Pull The Wool Over My Eyes-166bpm
TTITLE7=Benny Goodman-These Foolish Things Remind Me Of You-90bpm
TTITLE8=Benny Goodman-Too Good To Be True-79bpm
TTITLE9=Benny Goodman-The Glory Of LOve-162bpm
TTITLE10=Benny Goodman-All My Life-79bpm
TTITLE11=Benny Goodman-Goodnight My Love-115bpm
TTITLE12=Benny Goodman-I Cried For You-149bpm
TTITLE13=Benny Goodman-It's Been So LOng-125bpm
TTITLE14=Benny Goodman-You're Giving Me A Song And A Dance-92bpm
TTITLE15=Benny Goodman-Goodbye-68bpm
EXTD=
EXTT0=
EXTT1=
EXTT2=
EXTT3=
EXTT4=
EXTT5=
EXTT6=
EXTT7=
EXTT8=
EXTT9=
EXTT10=
EXTT11=
EXTT12=
EXTT13=
EXTT14=
EXTT15=
PLAYORDER=
